<?xml version="1.0" encoding="UTF-8"?>
<svg xmlns="http://www.w3.org/2000/svg" width="230" height="67" viewBox="0 0 230 67" fill="none">
  <g filter="url(#filter0_f_7085_83)">
    <path d="M34.1985 32.6883C34.1985 32.9626 34.1985 33.2369 34.1985 33.6484C34.1985 40.2319 28.8934 45.7182 22.2279 45.7182C17.3309 45.7182 12.9779 42.7007 11.2095 38.3117C11.2095 38.0374 11.2095 37.9002 11.2095 37.6259C11.2095 31.0424 16.5147 25.5561 23.1801 25.5561C28.0772 25.5561 32.2941 28.4364 34.1985 32.6883L34.0625 8C17.4669 8 4 21.5786 4 38.3117H10.9375V63C27.5331 63 41 49.4214 41 32.6883H34.1985Z" fill="#2E88FF" fill-opacity="0.7"></path>
  </g>
  <path d="M33.5662 32.3416C33.5662 32.601 33.5662 32.8604 33.5662 33.2494C33.5662 39.4738 28.5478 44.6609 22.2427 44.6609C17.6103 44.6609 13.4926 41.808 11.8198 37.6584C11.8198 37.399 11.8198 37.2693 11.8198 37.01C11.8198 30.7855 16.8382 25.5985 23.1434 25.5985C27.7757 25.5985 31.7647 28.3217 33.5662 32.3416L33.4375 9C17.7389 9 5 21.8379 5 37.6584H11.5625V61C27.261 61 40 48.1621 40 32.3416H33.5662Z" fill="#201B21"></path>
  <path d="M56.024 19.64V40.904C56.024 43.432 56.68 45.336 57.992 46.616C59.336 47.896 61.192 48.536 63.56 48.536C65.96 48.536 67.816 47.896 69.128 46.616C70.472 45.336 71.144 43.432 71.144 40.904V19.64H76.616V40.808C76.616 43.528 76.024 45.832 74.84 47.72C73.656 49.608 72.072 51.016 70.088 51.944C68.104 52.872 65.912 53.336 63.512 53.336C61.112 53.336 58.92 52.872 56.936 51.944C54.984 51.016 53.432 49.608 52.28 47.72C51.128 45.832 50.552 43.528 50.552 40.808V19.64H56.024ZM115.757 26.12C117.837 26.12 119.693 26.552 121.325 27.416C122.989 28.28 124.285 29.56 125.213 31.256C126.173 32.952 126.653 35 126.653 37.4V53H121.229V38.216C121.229 35.848 120.637 34.04 119.453 32.792C118.269 31.512 116.653 30.872 114.605 30.872C112.557 30.872 110.925 31.512 109.709 32.792C108.525 34.04 107.933 35.848 107.933 38.216V53H102.509V38.216C102.509 35.848 101.917 34.04 100.733 32.792C99.5486 31.512 97.9326 30.872 95.8846 30.872C93.8366 30.872 92.2046 31.512 90.9886 32.792C89.8046 34.04 89.2126 35.848 89.2126 38.216V53H83.7406V26.552H89.2126V29.576C90.1086 28.488 91.2446 27.64 92.6206 27.032C93.9966 26.424 95.4686 26.12 97.0366 26.12C99.1486 26.12 101.037 26.568 102.701 27.464C104.365 28.36 105.645 29.656 106.541 31.352C107.341 29.752 108.589 28.488 110.285 27.56C111.981 26.6 113.805 26.12 115.757 26.12ZM139.088 30.488C140.016 29.208 141.28 28.168 142.88 27.368C144.512 26.536 146.32 26.12 148.304 26.12C150.64 26.12 152.752 26.68 154.64 27.8C156.528 28.92 158.016 30.52 159.104 32.6C160.192 34.648 160.736 37 160.736 39.656C160.736 42.312 160.192 44.696 159.104 46.808C158.016 48.888 156.512 50.52 154.592 51.704C152.704 52.856 150.608 53.432 148.304 53.432C146.256 53.432 144.432 53.032 142.832 52.232C141.264 51.432 140.016 50.408 139.088 49.16V53H133.616V17.48H139.088V30.488ZM155.168 39.656C155.168 37.832 154.784 36.264 154.016 34.952C153.28 33.608 152.288 32.6 151.04 31.928C149.824 31.224 148.512 30.872 147.104 30.872C145.728 30.872 144.416 31.224 143.168 31.928C141.952 32.632 140.96 33.656 140.192 35C139.456 36.344 139.088 37.928 139.088 39.752C139.088 41.576 139.456 43.176 140.192 44.552C140.96 45.896 141.952 46.92 143.168 47.624C144.416 48.328 145.728 48.68 147.104 48.68C148.512 48.68 149.824 48.328 151.04 47.624C152.288 46.888 153.28 45.832 154.016 44.456C154.784 43.08 155.168 41.48 155.168 39.656ZM171.619 30.392C172.419 29.048 173.475 28.008 174.787 27.272C176.131 26.504 177.715 26.12 179.539 26.12V31.784H178.147C176.003 31.784 174.371 32.328 173.251 33.416C172.163 34.504 171.619 36.392 171.619 39.08V53H166.147V26.552H171.619V30.392ZM182.745 39.656C182.745 37 183.289 34.648 184.377 32.6C185.497 30.552 187.001 28.968 188.889 27.848C190.809 26.696 192.921 26.12 195.225 26.12C197.305 26.12 199.113 26.536 200.649 27.368C202.217 28.168 203.465 29.176 204.393 30.392V26.552H209.913V53H204.393V49.064C203.465 50.312 202.201 51.352 200.601 52.184C199.001 53.016 197.177 53.432 195.129 53.432C192.857 53.432 190.777 52.856 188.889 51.704C187.001 50.52 185.497 48.888 184.377 46.808C183.289 44.696 182.745 42.312 182.745 39.656ZM204.393 39.752C204.393 37.928 204.009 36.344 203.241 35C202.505 33.656 201.529 32.632 200.313 31.928C199.097 31.224 197.785 30.872 196.377 30.872C194.969 30.872 193.657 31.224 192.441 31.928C191.225 32.6 190.233 33.608 189.465 34.952C188.729 36.264 188.361 37.832 188.361 39.656C188.361 41.48 188.729 43.08 189.465 44.456C190.233 45.832 191.225 46.888 192.441 47.624C193.689 48.328 195.001 48.68 196.377 48.68C197.785 48.68 199.097 48.328 200.313 47.624C201.529 46.92 202.505 45.896 203.241 44.552C204.009 43.176 204.393 41.576 204.393 39.752ZM222.572 17.48V53H217.1V17.48H222.572Z" fill="black"></path>
  <defs>
    <filter id="filter0_f_7085_83" x="0" y="4" width="45" height="63" filterUnits="userSpaceOnUse" color-interpolation-filters="sRGB">
      <feFlood flood-opacity="0" result="BackgroundImageFix"></feFlood>
      <feBlend mode="normal" in="SourceGraphic" in2="BackgroundImageFix" result="shape"></feBlend>
      <feGaussianBlur stdDeviation="2" result="effect1_foregroundBlur_7085_83"></feGaussianBlur>
    </filter>
  </defs>
</svg>
